<svg width="21" height="19" viewBox="0 0 21 19" fill="none" xmlns="http://www.w3.org/2000/svg">
<path d="M0.166504 0.883929C0.166504 0.394085 0.554919 0 1.03772 0H2.68939C3.488 0 4.19586 0.471429 4.52619 1.17857H19.4457C20.4004 1.17857 21.0974 2.09933 20.8469 3.03482L19.3586 8.64408C19.05 9.80056 18.0155 10.6071 16.8357 10.6071H6.363L6.55902 11.6568C6.63888 12.073 6.99826 12.375 7.41571 12.375H17.8812C18.3639 12.375 18.7524 12.7691 18.7524 13.2589C18.7524 13.7488 18.3639 14.1429 17.8812 14.1429H7.41571C6.15972 14.1429 5.08159 13.2368 4.84927 11.9883L2.97616 2.00725C2.95075 1.8673 2.83096 1.76786 2.68939 1.76786H1.03772C0.554919 1.76786 0.166504 1.37377 0.166504 0.883929ZM4.81297 17.0893C4.81297 16.8571 4.85804 16.6272 4.9456 16.4128C5.03317 16.1983 5.16151 16.0034 5.32331 15.8392C5.48511 15.6751 5.6772 15.5448 5.8886 15.456C6.1 15.3672 6.32657 15.3214 6.55539 15.3214C6.78421 15.3214 7.01079 15.3672 7.22219 15.456C7.43359 15.5448 7.62567 15.6751 7.78747 15.8392C7.94927 16.0034 8.07762 16.1983 8.16518 16.4128C8.25275 16.6272 8.29782 16.8571 8.29782 17.0893C8.29782 17.3214 8.25275 17.5513 8.16518 17.7658C8.07762 17.9803 7.94927 18.1752 7.78747 18.3393C7.62567 18.5035 7.43359 18.6337 7.22219 18.7226C7.01079 18.8114 6.78421 18.8571 6.55539 18.8571C6.32657 18.8571 6.1 18.8114 5.8886 18.7226C5.6772 18.6337 5.48511 18.5035 5.32331 18.3393C5.16151 18.1752 5.03317 17.9803 4.9456 17.7658C4.85804 17.5513 4.81297 17.3214 4.81297 17.0893ZM17.0099 15.3214C17.4721 15.3214 17.9152 15.5077 18.242 15.8392C18.5688 16.1708 18.7524 16.6204 18.7524 17.0893C18.7524 17.5582 18.5688 18.0078 18.242 18.3393C17.9152 18.6709 17.4721 18.8571 17.0099 18.8571C16.5478 18.8571 16.1046 18.6709 15.7779 18.3393C15.4511 18.0078 15.2675 17.5582 15.2675 17.0893C15.2675 16.6204 15.4511 16.1708 15.7779 15.8392C16.1046 15.5077 16.5478 15.3214 17.0099 15.3214Z" fill="#F07800"/>
</svg>
