<svg width="10" height="9" viewBox="0 0 10 9" fill="none" xmlns="http://www.w3.org/2000/svg">
<path d="M0 1.40625C0 1.72266 0.279297 2.01445 0.75 2.25C1.31836 2.53301 2.16602 2.7334 3.13867 2.79316C3.21094 2.76152 3.2832 2.73164 3.35937 2.70527C4.12891 2.41523 5.15234 2.25 6.25 2.25C6.41211 2.25 6.57031 2.25352 6.72852 2.26055L6.75 2.25C7.2207 2.01445 7.5 1.72266 7.5 1.40625C7.5 0.629297 5.82031 0 3.75 0C1.67969 0 0 0.629297 0 1.40625ZM6.86133 2.83184C6.66211 2.81953 6.45703 2.8125 6.25 2.8125C5.03516 2.8125 3.95703 3.02871 3.27148 3.36445C2.78711 3.60176 2.5 3.89707 2.5 4.21875C2.5 4.28906 2.51367 4.35762 2.54102 4.42441C2.63086 4.65645 2.87305 4.86914 3.22461 5.04844C3.22656 5.0502 3.23047 5.0502 3.23242 5.05195C3.23828 5.05547 3.24414 5.05723 3.25 5.06074C3.93359 5.40176 5.02344 5.62324 6.25 5.62324C7.41406 5.62324 8.45508 5.42461 9.14453 5.11172C9.18164 5.0959 9.2168 5.07832 9.25195 5.06074C9.7207 4.82695 10 4.53516 10 4.21875C10 3.60703 8.95703 3.08496 7.5 2.89336C7.29492 2.86699 7.08203 2.8459 6.86133 2.83184ZM1.875 4.21875C1.875 3.83379 2.08203 3.51738 2.3457 3.28008C1.79297 3.20273 1.28711 3.07969 0.857422 2.91973C0.539062 2.8002 0.242188 2.65254 0 2.47148V3.09375C0 3.43301 0.322265 3.7459 0.855468 3.98848C1.14062 4.11856 1.48828 4.2293 1.87891 4.31367C1.87695 4.28203 1.875 4.25215 1.875 4.22051V4.21875ZM2.5 5.90625C2.5 6.22266 2.7793 6.51445 3.25 6.75C3.28516 6.76758 3.32031 6.7834 3.35742 6.80098C4.04492 7.11387 5.08594 7.3125 6.25 7.3125C7.47656 7.3125 8.56641 7.09102 9.25 6.75C9.7207 6.51445 10 6.22266 10 5.90625V5.28398C9.75586 5.46504 9.46094 5.6127 9.14258 5.73223C8.37109 6.02227 7.34766 6.1875 6.25 6.1875C5.15234 6.1875 4.12891 6.02227 3.35742 5.73223C3.20508 5.67598 3.05859 5.61094 2.91992 5.54063C2.80078 5.48086 2.68945 5.41406 2.58398 5.34375C2.55469 5.32441 2.52734 5.30332 2.5 5.28398V5.34375V5.44395V5.90625ZM1.875 5.90625V5.34375V4.88848C1.50391 4.81465 1.16211 4.72148 0.857422 4.60723C0.539062 4.4877 0.242188 4.34004 0 4.15898V4.78125C0 4.96582 0.0976562 5.15039 0.291016 5.32441C0.609375 5.61094 1.16992 5.84648 1.87891 5.99941C1.87695 5.96953 1.875 5.93789 1.875 5.90625ZM6.25 7.875C5.15234 7.875 4.12891 7.70977 3.35742 7.41973C3.03906 7.3002 2.74219 7.15254 2.5 6.97148V7.59375C2.5 8.3707 4.17969 9 6.25 9C8.32031 9 10 8.3707 10 7.59375V6.97148C9.75586 7.15254 9.46094 7.3002 9.14258 7.41973C8.37109 7.70977 7.34766 7.875 6.25 7.875Z" fill="#F07800"/>
</svg>
