<svg xmlns="http://www.w3.org/2000/svg" viewBox="0 0 48 22"><svg width="26" height="22" viewBox="0 0 26 22" fill="none" xmlns="http://www.w3.org/2000/svg" x="0"><path d="M2.60189 5.39735C4.6778 2.1883 8.54345 0 13.3174 0C20.5801 0 25.6637 5.0165 25.6637 10.9997C25.6637 16.9534 20.5801 22 13.3174 22C8.60932 22 4.78474 19.8584 2.68884 16.7211L17.4217 15.8189V15.4813L1.56663 14.5156C1.15909 13.4057 0.938477 12.2228 0.938477 10.9997C0.938477 9.6703 1.19379 8.38915 1.66895 7.19935L9.18007 6.42365V6.0861L2.60189 5.39735Z" fill="#F07800" /></svg><svg width="22" height="22" viewBox="0 0 22 22" fill="none" xmlns="http://www.w3.org/2000/svg" x="26"><path d="M11.069 6.0136L0.967529 16.9834V21.5768H21.2597V15.9863H10.6636L20.7319 4.98645V0.423096H1.51927V6.0136H11.069Z" fill="#F07800" /></svg></svg>