<svg width="23" height="23" viewBox="0 0 23 23" fill="none" xmlns="http://www.w3.org/2000/svg">
<path d="M11.2588 0.5C5.08368 0.5 0.0668945 5.43078 0.0668945 11.5C0.0668945 17.0096 4.20155 21.5692 9.58655 22.3643L10.1708 22.4512V13.7832H7.52682V12.0234H10.1708V9.68652C10.1708 8.24748 10.5221 7.29971 11.1038 6.70508C11.6854 6.11045 12.5448 5.81055 13.7408 5.81055C14.6971 5.81055 15.0691 5.8675 15.4229 5.91016V7.35059H14.178C13.4716 7.35059 12.892 7.73795 12.5912 8.25391C12.2904 8.76986 12.1967 9.38591 12.1967 10.0137V12.0225H15.3117L15.0344 13.7822H12.1967V22.4648L12.774 22.3877C18.2356 21.6597 22.4506 17.0634 22.4506 11.5C22.4506 5.43078 17.4339 0.5 11.2588 0.5ZM11.2588 1.5C16.884 1.5 21.4332 5.97122 21.4332 11.5C21.4332 16.3649 17.8904 20.3659 13.2142 21.2666V14.7822H15.9068L16.498 11.0225H13.2142V10.0137C13.2142 9.49494 13.3107 9.03015 13.4735 8.75098C13.6363 8.47181 13.7932 8.35059 14.178 8.35059H16.4404V5.00488L15.9992 4.94629C15.6941 4.90571 14.9975 4.81055 13.7408 4.81055C12.3657 4.81055 11.1853 5.17872 10.3705 6.01172C9.5557 6.84471 9.15334 8.08506 9.15334 9.68652V11.0234H6.50938V14.7832H9.15334V21.2354C4.55229 20.2774 1.08434 16.3122 1.08434 11.5C1.08434 5.97122 5.63355 1.5 11.2588 1.5Z" fill="#F07800"/>
</svg>
