<svg width="22" height="23" viewBox="0 0 22 23" fill="none" xmlns="http://www.w3.org/2000/svg">
<path d="M6.56966 0.5C3.21509 0.5 0.485352 3.41624 0.485352 7V16C0.485352 19.5838 3.21509 22.5 6.56966 22.5H14.9941C18.3487 22.5 21.0784 19.5838 21.0784 16V7C21.0784 3.41624 18.3487 0.5 14.9941 0.5H6.56966ZM6.56966 1.5H14.9941C17.8427 1.5 20.1424 3.95676 20.1424 7V16C20.1424 19.0432 17.8427 21.5 14.9941 21.5H6.56966C3.72104 21.5 1.4214 19.0432 1.4214 16V7C1.4214 3.95676 3.72104 1.5 6.56966 1.5ZM16.3982 4.5C16.1499 4.5 15.9118 4.60536 15.7363 4.79289C15.5607 4.98043 15.4621 5.23478 15.4621 5.5C15.4621 5.76522 15.5607 6.01957 15.7363 6.20711C15.9118 6.39464 16.1499 6.5 16.3982 6.5C16.6464 6.5 16.8845 6.39464 17.06 6.20711C17.2356 6.01957 17.3342 5.76522 17.3342 5.5C17.3342 5.23478 17.2356 4.98043 17.06 4.79289C16.8845 4.60536 16.6464 4.5 16.3982 4.5ZM10.7819 6C7.94411 6 5.63361 8.46836 5.63361 11.5C5.63361 14.5316 7.94411 17 10.7819 17C13.6196 17 15.9301 14.5316 15.9301 11.5C15.9301 8.46836 13.6196 6 10.7819 6ZM10.7819 7C13.1138 7 14.9941 9.0088 14.9941 11.5C14.9941 13.9912 13.1138 16 10.7819 16C8.44999 16 6.56966 13.9912 6.56966 11.5C6.56966 9.0088 8.44999 7 10.7819 7Z" fill="#F07800"/>
</svg>
