<svg width="23" height="23" viewBox="0 0 23 23" fill="none" xmlns="http://www.w3.org/2000/svg">
<path d="M11.288 0C5.34843 0 0.523438 5.15465 0.523438 11.5C0.523438 17.8454 5.34843 23 11.288 23C17.2275 23 22.0525 17.8454 22.0525 11.5C22.0525 5.15465 17.2275 0 11.288 0ZM11.288 1C16.7217 1 21.1165 5.69509 21.1165 11.5C21.1165 17.3049 16.7217 22 11.288 22C5.85431 22 1.45949 17.3049 1.45949 11.5C1.45949 5.69509 5.85431 1 11.288 1ZM15.5413 6.01758C15.2212 6.01758 14.8615 6.09679 14.4408 6.25879C13.7874 6.51029 6.10263 9.99608 5.22836 10.3926C4.72851 10.6196 3.79778 11.0418 3.79778 12.0488C3.79778 12.7163 4.1639 13.1938 4.88466 13.4688C5.27218 13.6163 6.19257 13.9143 6.72659 14.0713C6.95311 14.1378 7.19384 14.1719 7.44142 14.1719C7.92582 14.1719 8.41331 14.0429 8.79522 13.8154C8.79194 13.8994 8.79408 13.9843 8.80344 14.0693C8.86101 14.5943 9.16404 15.0881 9.61335 15.3906C9.90726 15.5886 12.308 17.3071 12.6665 17.5801C13.1701 17.9646 13.7268 18.168 14.2753 18.168C15.3237 18.168 15.6754 17.0116 15.8448 16.4561C16.0905 15.6496 17.0106 9.09107 17.1145 7.93457C17.1852 7.14207 16.876 6.48948 16.2873 6.18848C16.0668 6.07498 15.8151 6.01758 15.5413 6.01758ZM15.5413 7.01758C15.67 7.01758 15.785 7.04032 15.8823 7.09082C16.1037 7.20432 16.2163 7.45735 16.1821 7.83985C16.0689 9.10135 15.151 15.5045 14.9554 16.1465C14.7878 16.6955 14.6113 17.168 14.2753 17.168C13.9393 17.168 13.5721 17.0421 13.2104 16.7656C12.8486 16.4896 10.4461 14.7684 10.1124 14.5439C9.81993 14.3469 9.51035 13.8559 9.94608 13.3809C10.3051 12.9899 13.028 10.1665 13.2606 9.91797C13.4338 9.73247 13.3528 9.50879 13.1829 9.50879C13.1244 9.50879 13.0544 9.53514 12.9818 9.59864C12.6973 9.84714 8.73013 12.6831 8.3866 12.9111C8.15914 13.0621 7.80694 13.1709 7.44142 13.1709C7.28556 13.1709 7.12777 13.1509 6.97613 13.1064C6.4482 12.9509 5.55478 12.6614 5.20002 12.5264C4.85883 12.3964 4.73474 12.2718 4.73474 12.0488C4.73474 11.7318 5.15357 11.513 5.59492 11.3125C6.06107 11.101 14.127 7.44172 14.7579 7.19922C15.05 7.08622 15.3172 7.01758 15.5413 7.01758Z" fill="#F07800"/>
</svg>
