<svg width="21" height="21" viewBox="0 0 21 21" fill="none" xmlns="http://www.w3.org/2000/svg">
<path d="M2.81107 0C1.5238 0 0.470947 1.12479 0.470947 2.5V18.5C0.470947 19.8752 1.5238 21 2.81107 21H17.7878C19.0751 21 20.1279 19.8752 20.1279 18.5V2.5C20.1279 1.12479 19.0751 0 17.7878 0H2.81107ZM2.81107 1H17.7878C18.5702 1 19.1919 1.66421 19.1919 2.5V18.5C19.1919 19.3358 18.5702 20 17.7878 20H2.81107C2.02873 20 1.40699 19.3358 1.40699 18.5V2.5C1.40699 1.66421 2.02873 1 2.81107 1ZM10.7876 3C10.6636 3.00001 10.5447 3.05256 10.457 3.14612C10.3692 3.23967 10.3198 3.36659 10.3196 3.49902C10.3196 3.49902 10.3144 5.93663 10.3095 8.37988C10.307 9.60151 10.304 10.8244 10.3022 11.7451C10.3003 12.6658 10.2994 13.2484 10.2994 13.2969C10.2994 14.2045 9.52787 14.9463 8.64857 14.9463C7.77627 14.9463 7.07996 14.2014 7.07996 13.2695C7.07996 12.3376 7.77627 11.5937 8.64857 11.5937C8.67812 11.5937 8.73768 11.6041 8.83962 11.6172C8.90536 11.6256 8.97203 11.619 9.03522 11.5979C9.09841 11.5767 9.15668 11.5415 9.20619 11.4945C9.25569 11.4476 9.2953 11.3899 9.3224 11.3254C9.3495 11.2608 9.36348 11.1909 9.3634 11.1201V9.01953C9.36339 8.89233 9.31801 8.76992 9.23649 8.67722C9.15498 8.58451 9.04346 8.52847 8.92463 8.52051C8.8517 8.51561 8.75992 8.50586 8.64857 8.50586C6.19166 8.50586 4.18954 10.6448 4.18954 13.2695C4.18954 15.8943 6.19166 18.0332 8.64857 18.0332C11.1054 18.0332 13.1076 15.8943 13.1076 13.2695V8.74512C13.7884 9.32682 14.6369 9.69531 15.5739 9.69531C15.7017 9.69531 15.8232 9.68722 15.9395 9.67578C16.0557 9.66432 16.1637 9.60689 16.2424 9.51476C16.321 9.42262 16.3646 9.30242 16.3646 9.17773V6.84277C16.3646 6.71637 16.3199 6.59462 16.2393 6.50204C16.1588 6.40945 16.0484 6.3529 15.9304 6.34375C14.4586 6.23094 13.2854 5.00611 13.1323 3.44824C13.1203 3.3253 13.0661 3.21147 12.9802 3.12869C12.8943 3.04592 12.7827 3.00007 12.667 3H10.7876ZM11.2547 4H12.3224C12.6625 5.64935 13.8689 6.9072 15.4285 7.22266V8.65527C14.4275 8.60097 13.5482 8.06747 13.0308 7.22656C12.9755 7.13657 12.8944 7.06806 12.7997 7.03124C12.705 6.99442 12.6017 6.99124 12.5051 7.02218C12.4086 7.05312 12.324 7.11653 12.2639 7.20297C12.2038 7.28941 12.1714 7.39427 12.1715 7.50195V13.2695C12.1715 15.3538 10.5996 17.0332 8.64857 17.0332C6.69762 17.0332 5.12559 15.3538 5.12559 13.2695C5.12559 11.2693 6.58619 9.68159 8.42735 9.55371V10.6416C7.15733 10.7679 6.14391 11.8811 6.14391 13.2695C6.14391 14.7416 7.27061 15.9463 8.64857 15.9463C10.0195 15.9463 11.2355 14.7932 11.2355 13.2969C11.2355 13.3213 11.2364 12.6678 11.2382 11.7471C11.2401 10.8264 11.2431 9.60346 11.2456 8.38183C11.25 6.18839 11.2538 4.4246 11.2547 4Z" fill="#F07800"/>
</svg>
