<svg width="21" height="21" viewBox="0 0 21 21" fill="none" xmlns="http://www.w3.org/2000/svg">
<path d="M3.3057 0C2.01886 0 0.965576 1.12524 0.965576 2.5V18.5C0.965576 19.8748 2.01886 21 3.3057 21H18.2825C19.5693 21 20.6226 19.8748 20.6226 18.5V2.5C20.6226 1.12524 19.5693 0 18.2825 0H3.3057ZM3.3057 1H18.2825C19.0633 1 19.6865 1.66576 19.6865 2.5V18.5C19.6865 19.3342 19.0633 20 18.2825 20H3.3057C2.52481 20 1.90162 19.3342 1.90162 18.5V2.5C1.90162 1.66576 2.52481 1 3.3057 1ZM10.0436 5.99609C9.54866 5.99488 9.10734 6.02443 8.71265 6.23144L8.71174 6.23242C8.51932 6.3337 8.38369 6.46235 8.27571 6.61523C8.22171 6.69168 8.1664 6.7603 8.13676 6.93457C8.12194 7.0217 8.11362 7.16291 8.19892 7.31543C8.28422 7.46795 8.45574 7.55468 8.56548 7.57031C8.64171 7.58115 8.81378 7.6594 8.82966 7.68262L8.83057 7.68457C8.83057 7.68457 8.8973 7.87057 8.9165 8.03613C8.9357 8.20169 8.93478 8.33594 8.93478 8.33594C8.93458 8.34929 8.93489 8.36265 8.93569 8.37598C8.93569 8.37598 8.96281 8.80975 8.94483 9.25781C8.93767 9.43639 8.91606 9.59526 8.89364 9.7373C8.72698 9.54072 8.48139 9.18473 8.12671 8.52832C7.73324 7.79972 7.4201 7.14648 7.4201 7.14648C7.40365 7.08957 7.34549 6.91251 7.11844 6.73437C6.87024 6.53894 6.63031 6.50976 6.63031 6.50976C6.60021 6.50332 6.5696 6.50004 6.5389 6.5L4.69423 6.50098C4.69423 6.50098 4.58362 6.49414 4.45107 6.51367C4.31852 6.5332 4.11893 6.5491 3.92638 6.79297L3.92546 6.79394C3.75338 7.01361 3.76378 7.25641 3.78469 7.39355C3.80559 7.5307 3.85233 7.63476 3.85233 7.63476C3.85323 7.63672 3.85415 7.63868 3.85507 7.64062C3.85507 7.64062 5.36393 11.0297 7.06908 13.0254C8.30733 14.4744 9.57826 14.499 10.6268 14.499H11.4093C11.609 14.499 11.7897 14.4907 11.9897 14.3662C12.1897 14.2417 12.3243 13.9387 12.3243 13.7285C12.3243 13.5083 12.3551 13.3351 12.3929 13.2461C12.4194 13.1835 12.4405 13.1609 12.4733 13.1426C12.4802 13.1473 12.4758 13.1445 12.4952 13.1592C12.5731 13.2177 12.7018 13.3511 12.8417 13.5176C13.1214 13.8504 13.439 14.307 13.8655 14.6201C14.171 14.8446 14.4596 14.9443 14.679 14.9805C14.8165 15.0031 14.9233 14.9988 14.999 14.9922L16.7468 15C16.7571 15 16.7675 14.9997 16.7778 14.999C16.7778 14.999 17.079 15.0028 17.3921 14.8027C17.5487 14.7027 17.7333 14.5131 17.7934 14.2363C17.8535 13.9596 17.778 13.6729 17.6307 13.4111V13.4102C17.6563 13.4555 17.6075 13.3624 17.5576 13.2754C17.5076 13.1884 17.435 13.0712 17.3309 12.9258C17.1225 12.6349 16.7888 12.228 16.2495 11.6914H16.2486C15.9746 11.4191 15.7896 11.2263 15.7138 11.1191C15.638 11.012 15.6629 11.0683 15.6681 11.041C15.6786 10.9865 16.0074 10.4798 16.6764 9.52539C17.083 8.94444 17.3684 8.50828 17.5567 8.14551C17.7449 7.78273 17.8806 7.46854 17.7861 7.08398L17.7852 7.08203C17.7432 6.91322 17.6286 6.75762 17.511 6.67285C17.3933 6.58808 17.2817 6.55493 17.1819 6.53418C16.9822 6.49269 16.808 6.5 16.6462 6.5C16.307 6.5 14.802 6.51269 14.6781 6.51269C14.5318 6.51269 14.2897 6.58382 14.1827 6.65234C13.9135 6.82538 13.8362 7.05273 13.8362 7.05273C13.8314 7.06234 13.8268 7.07211 13.8225 7.08203C13.8225 7.08203 13.5121 7.81749 13.1123 8.54394C12.7072 9.28081 12.408 9.63225 12.2274 9.79492C12.2224 9.76599 12.2233 9.78948 12.2201 9.74902C12.2039 9.54325 12.2219 9.25891 12.2219 8.98144C12.2219 8.23419 12.2812 7.7112 12.2493 7.24902C12.2334 7.01794 12.1933 6.77964 12.051 6.56055C11.9086 6.34145 11.6717 6.19911 11.4376 6.13867C11.2971 6.10247 11.137 6.00832 10.5573 6.00195H10.5564C10.3791 6.00006 10.2086 5.9965 10.0436 5.99609ZM10.5473 7.00195C11.0602 7.00758 10.9324 7.03775 11.2173 7.11133C11.3057 7.13413 11.2843 7.134 11.2822 7.13086C11.2802 7.12771 11.3061 7.17926 11.316 7.32324C11.3359 7.61119 11.2859 8.1837 11.2859 8.98144C11.2859 9.19898 11.2613 9.5094 11.2868 9.83301C11.3122 10.1566 11.3874 10.5719 11.7493 10.8223C11.9209 10.9411 12.1201 10.9486 12.2905 10.9033C12.4608 10.8581 12.6154 10.7638 12.7777 10.625C13.1023 10.3473 13.4643 9.87873 13.9194 9.05078C14.3448 8.27793 14.6541 7.54198 14.6644 7.51758C14.6664 7.51586 14.6685 7.51467 14.6708 7.51269C14.6767 7.51276 14.6706 7.51269 14.6781 7.51269C14.8529 7.51269 16.3302 7.5 16.6462 7.5C16.72 7.5 16.7468 7.50475 16.8053 7.50683C16.7894 7.56347 16.807 7.52734 16.7376 7.66113C16.592 7.94173 16.3237 8.35873 15.9268 8.92578C15.2745 9.85635 14.8703 10.221 14.7513 10.8389C14.6917 11.1478 14.8033 11.4903 14.967 11.7217C15.1307 11.9531 15.3373 12.1514 15.6114 12.4238C16.119 12.9288 16.4168 13.2956 16.5877 13.5342C16.6731 13.6534 16.727 13.7396 16.7605 13.7978C16.7939 13.8561 16.7857 13.85 16.829 13.9268C16.8576 13.9779 16.8471 13.9467 16.8519 13.9619C16.7958 13.9788 16.7278 13.9992 16.7239 14L15.0026 13.9922C14.9716 13.9922 14.9407 13.9954 14.9103 14.002C14.9103 14.002 14.9146 14.0074 14.8226 13.9922C14.7305 13.977 14.584 13.9344 14.3957 13.7959C14.1683 13.629 13.8501 13.2206 13.5382 12.8496C13.3823 12.6641 13.2268 12.486 13.0336 12.3408C12.8405 12.1957 12.5514 12.0592 12.2393 12.1641C11.9153 12.2727 11.6631 12.5429 11.54 12.833C11.4483 13.049 11.4409 13.2746 11.4266 13.499C11.4111 13.5003 11.429 13.499 11.4093 13.499H10.6268C9.5636 13.499 8.80867 13.5776 7.76015 12.3506C6.34976 10.6999 5.05756 7.9535 4.84688 7.50098L6.47034 7.5C6.49888 7.5117 6.55995 7.5362 6.56358 7.53906L6.56541 7.54101C6.50607 7.49467 6.56815 7.55957 6.56815 7.55957C6.57388 7.57454 6.58029 7.58921 6.58735 7.60351C6.58735 7.60351 6.90903 8.27492 7.31589 9.02832C7.71498 9.76691 8.0058 10.2283 8.28668 10.5332C8.42711 10.6856 8.56888 10.8079 8.75836 10.877C8.94783 10.946 9.1925 10.9207 9.3571 10.8242C9.69334 10.6276 9.73851 10.3375 9.79313 10.084C9.84782 9.83006 9.86959 9.55956 9.87997 9.30078C9.90011 8.79848 9.87162 8.36376 9.86991 8.33691C9.87002 8.3275 9.87216 8.14622 9.84523 7.91406C9.81767 7.67634 9.78692 7.38568 9.58562 7.09277L9.58471 7.0918C9.58331 7.08975 9.58154 7.08989 9.58014 7.08789C9.84633 7.0471 10.0741 6.9969 10.5473 7.00195ZM14.6763 7.49219L14.6699 7.50781C14.6689 7.50842 14.6692 7.50709 14.6681 7.50781C14.67 7.50378 14.6763 7.49219 14.6763 7.49219Z" fill="#F07800"/>
</svg>
