<svg width="22" height="21" viewBox="0 0 22 21" fill="none" xmlns="http://www.w3.org/2000/svg">
<path d="M2.57852 0C1.17978 0 0.0349121 1.07632 0.0349121 2.3913V17.6957C0.0349121 19.0106 1.17978 20.087 2.57852 20.087H18.8576C20.2564 20.087 21.4012 19.0106 21.4012 17.6957V2.3913C21.4012 1.07632 20.2564 0 18.8576 0H2.57852ZM2.57852 0.956522H18.8576C19.7064 0.956522 20.3838 1.59333 20.3838 2.3913V17.6957C20.3838 18.4936 19.7064 19.1304 18.8576 19.1304H2.57852C1.72973 19.1304 1.05236 18.4936 1.05236 17.6957V2.3913C1.05236 1.59333 1.72973 0.956522 2.57852 0.956522ZM5.63085 1.91304C5.84146 2.39752 6.8528 4.48663 7.15702 5.25807V7.17391H8.17446V5.26087L9.70062 1.91304H8.47949L7.66574 3.82609L6.85198 1.91304H5.63085ZM10.7181 3.34783C10.2063 3.34783 9.8171 3.4795 9.53171 3.79993C9.31144 4.03667 9.19289 4.41638 9.19289 4.91712L9.1919 5.60836C9.1919 6.10623 9.29653 6.45055 9.51681 6.68538C9.80271 7.00438 10.2658 7.17391 10.7181 7.17391C11.1703 7.17391 11.6419 7.0044 11.9283 6.68444C12.145 6.45009 12.2442 6.10623 12.2442 5.60836V4.91432C12.2442 4.4131 12.1211 4.03667 11.9044 3.79993C11.6185 3.4795 11.1703 3.34783 10.7181 3.34783ZM12.753 3.34783V6.13986C12.753 6.45551 12.803 6.67001 12.8742 6.80774C12.9912 7.03396 13.2255 7.14986 13.5617 7.1599C14.0252 7.17425 14.3732 6.89174 14.7878 6.5163V7.17391H15.8053V3.34783H14.7878V5.91848C14.5564 6.17626 14.29 6.40515 14.0804 6.40515C13.9415 6.40515 13.7958 6.34509 13.7704 6.21739V3.34783H12.753ZM10.7181 4.1222C10.9989 4.1222 11.2268 4.34099 11.2268 4.61073V5.95304C11.2268 6.2223 10.9989 6.44158 10.7181 6.44158C10.4373 6.44158 10.2093 6.22278 10.2093 5.95304V4.61073C10.2093 4.34147 10.4373 4.1222 10.7181 4.1222ZM10.7131 8.6087C10.7131 8.6087 7.29985 8.60884 5.02078 8.76189C4.70029 8.79537 4.00795 8.80019 3.38731 9.39801C2.89894 9.84758 2.74147 10.8804 2.74147 10.8804C2.74147 10.8804 2.57852 11.6124 2.57852 12.8224V13.9555C2.57852 15.1655 2.74147 15.8975 2.74147 15.8975C2.74147 15.8975 2.89894 16.9302 3.38731 17.3846C4.00795 17.9776 4.82155 17.9585 5.18274 18.0207C6.48507 18.1355 10.7181 18.1739 10.7181 18.1739C10.7181 18.1739 14.1363 18.1691 16.4154 18.016C16.7358 17.9826 17.4282 17.9778 18.0488 17.3799C18.5372 16.9304 18.6947 15.8975 18.6947 15.8975C18.6947 15.8975 18.8576 15.1655 18.8576 13.9555V12.8224C18.8576 11.6124 18.6947 10.8804 18.6947 10.8804C18.6947 10.8804 18.5372 9.84758 18.0488 9.39801C17.4282 8.80019 16.7358 8.79537 16.4154 8.76189C14.1363 8.60884 10.723 8.6087 10.723 8.6087H10.7131ZM4.10469 10.5217H7.15702V11.4783H6.13957V16.2609H5.12213V11.4783H4.10469V10.5217ZM10.7181 10.5217H11.7355V12.6169C12.1171 12.1961 12.3201 11.9517 12.8136 11.9565C13.2002 11.9613 13.5111 12.1673 13.6382 12.5403C13.7044 12.7412 13.7704 13.1 13.7704 13.5735V14.8887C13.7653 15.3095 13.7192 15.4958 13.6581 15.6967C13.5309 16.0697 13.2002 16.2609 12.8136 16.2609C12.4727 16.2609 12.056 16.0361 11.7355 15.663V16.2609H10.7181V10.5217ZM7.15702 11.9565H8.17446V15.252C8.19989 15.3907 8.30649 15.4426 8.43876 15.4426C8.64224 15.4426 8.96806 15.2324 9.1919 14.955V11.9565H10.2093V16.2609H9.1919V15.6061C8.79001 16.0174 8.31134 16.2609 7.93997 16.2609C7.61439 16.2609 7.38618 16.1274 7.27426 15.8835C7.20813 15.7304 7.15702 15.5002 7.15702 15.1558V11.9565ZM15.8202 11.9565C16.3238 11.9565 16.7258 12.1095 17.0055 12.3965C17.2141 12.6069 17.3314 12.9324 17.3314 13.382V14.3478H15.2966V15.2091C15.2966 15.4291 15.5255 15.6107 15.8053 15.6107C16.0851 15.6107 16.314 15.4291 16.314 15.2091V14.8261H17.3314C17.3314 15.07 17.3008 15.2755 17.2957 15.352C17.2601 15.5194 17.1793 15.673 17.0572 15.8069C16.7825 16.113 16.37 16.2609 15.846 16.2609C15.3169 16.2609 14.9198 16.1172 14.6299 15.8302C14.4162 15.6246 14.2791 15.3092 14.2791 14.8644V13.4006C14.2791 12.9511 14.4012 12.6069 14.6199 12.3965C14.9099 12.1095 15.3064 11.9565 15.8202 11.9565ZM15.8053 12.6496C15.5255 12.6496 15.2966 12.8265 15.2966 13.0513V13.6827H16.314V13.0513C16.314 12.8265 16.0851 12.6496 15.8053 12.6496ZM12.3565 12.7935C12.2777 12.7935 12.1626 12.8307 12.0475 12.8869C11.99 12.915 11.9321 12.9477 11.8786 12.9831C11.8251 13.0185 11.7762 13.0569 11.7355 13.0952V15.1848C11.7762 15.223 11.8251 15.2585 11.8786 15.2894C12.0391 15.3822 12.2382 15.4379 12.3565 15.4379C12.4595 15.4379 12.5402 15.4143 12.6019 15.3576C12.6225 15.3387 12.6414 15.3159 12.6576 15.2894C12.69 15.2365 12.7134 15.1679 12.7291 15.0811C12.7448 14.9943 12.753 14.889 12.753 14.7635V13.4539C12.753 13.3283 12.7448 13.2236 12.7291 13.1382C12.6976 12.9673 12.6345 12.8715 12.5344 12.8262C12.4843 12.8035 12.4252 12.7935 12.3565 12.7935Z" fill="#F07800"/>
</svg>
