<svg width="19" height="21" viewBox="0 0 19 21" fill="none" xmlns="http://www.w3.org/2000/svg">
<path d="M4.47071 -0.00488281C2.09327 -0.00488281 0.156982 2.23945 0.156982 4.99512V15.9951C0.156982 18.7508 2.09327 20.9951 4.47071 20.9951H13.9609C16.3383 20.9951 18.2746 18.7508 18.2746 15.9951V4.99512C18.2746 2.23945 16.3383 -0.00488281 13.9609 -0.00488281H4.47071ZM4.47071 0.995117H13.9609C15.8722 0.995117 17.4119 2.77978 17.4119 4.99512V15.9951C17.4119 18.2104 15.8722 19.9951 13.9609 19.9951H4.47071C2.55944 19.9951 1.01973 18.2104 1.01973 15.9951V4.99512C1.01973 2.77978 2.55944 0.995117 4.47071 0.995117ZM8.16855 3.94629C8.00272 3.93399 7.83152 3.97643 7.67736 4.08105C7.26626 4.36055 7.1287 4.9737 7.36983 5.4502L8.15086 6.99512L5.62075 12H3.60796C3.13173 12 2.74522 12.448 2.74522 13C2.74522 13.552 3.13173 14 3.60796 14H10.2563C10.324 13.6185 10.2827 13.2048 10.0929 12.8223L10.0912 12.8203C9.92425 12.4833 9.69267 12.208 9.42307 12H7.62091L10.932 5.44922C11.1727 4.97272 11.0348 4.36005 10.6237 4.08105C10.2121 3.80205 9.68399 3.96198 9.44329 4.43848L9.15093 5.0166L8.85858 4.43848C8.70786 4.14066 8.44492 3.96678 8.16855 3.94629ZM10.6439 7.9707L10.2875 8.65723C9.89409 9.41523 9.88139 10.3534 10.2412 11.1279L12.9575 16.501C13.1179 16.819 13.4059 16.9951 13.7022 16.9951C13.8502 16.9951 14.0007 16.9514 14.1378 16.8584C14.5489 16.5794 14.6865 15.9667 14.4454 15.4902L13.6921 14H14.8236C15.2999 14 15.6864 13.552 15.6864 13C15.6864 12.448 15.2999 12 14.8236 12H12.6811L10.6439 7.9707ZM4.74032 15.002C4.50004 14.994 4.26655 15.0372 4.04439 15.1182L3.85229 15.4971C3.61116 15.9731 3.74956 16.5862 4.16066 16.8652C4.29784 16.9587 4.44744 17.0029 4.5954 17.0029C4.89175 17.0029 5.18013 16.8253 5.34104 16.5078L5.80527 15.5898C5.55291 15.2483 5.18414 15.017 4.74284 15.002H4.74032Z" fill="#F07800"/>
</svg>
