<svg width="18" height="24" viewBox="0 0 18 24" fill="none" xmlns="http://www.w3.org/2000/svg">
<path d="M0.925365 1.00005C0.92031 1.002 0.91694 1.01372 0.911884 1.01568C0.900089 1.01763 0.883239 1.01177 0.871443 1.01568C0.780451 1.0274 0.696198 1.07036 0.628796 1.14068C0.338968 1.32427 0.156982 1.70122 0.156982 2.10943V23.0001C0.156982 23.3106 0.274936 23.6368 0.493992 23.8282C0.595095 23.959 0.748435 24.0176 0.898404 23.9844C1.09555 23.9961 1.30282 23.9454 1.47806 23.8282C1.84372 23.5821 9.31017 18.5782 9.31017 18.5782L13.206 15.9688C13.2144 15.9649 13.2245 15.959 13.233 15.9532L13.2869 15.9219C13.2869 15.9219 13.3391 15.8907 13.3408 15.8907C13.3459 15.8848 13.3492 15.8809 13.3543 15.8751C13.4706 15.7969 16.662 13.668 17.1018 13.3751C17.4051 13.1719 17.6461 12.8418 17.6411 12.4376C17.636 12.0333 17.39 11.7188 17.1153 11.5469C16.9637 11.4532 15.9796 10.8008 15.0663 10.1876C14.153 9.57427 13.2869 8.98443 13.2869 8.98443L9.31017 6.32818C9.31017 6.32818 2.07962 1.48833 1.65331 1.20318C1.50334 1.10357 1.33315 1.02349 1.16801 1.00005C1.08544 0.988333 1.00625 0.984427 0.925365 1.00005ZM1.01973 2.3438L9.80894 12.4532L1.01973 22.5626V2.3438ZM3.06875 3.29693C5.26268 4.76568 8.8788 7.18755 8.8788 7.18755L12.3567 9.51568L10.4156 11.7501L3.06875 3.29693ZM13.1251 10.0313C13.3324 10.1719 13.8598 10.5274 14.6349 11.0469C15.5482 11.6602 16.4851 12.2813 16.7109 12.4219C16.7328 12.4356 16.7261 12.4434 16.7379 12.4532C16.721 12.4668 16.716 12.4708 16.6705 12.5001C16.2559 12.7774 13.5683 14.586 13.1386 14.8751L11.0222 12.4532L13.1251 10.0313ZM10.4156 13.1407L12.3702 15.3907L8.8788 17.7188C8.8788 17.7188 5.35704 20.0743 3.08223 21.5938L10.4156 13.1407Z" fill="#F07800"/>
</svg>
